G04 #@! TF.FileFunction,Copper,L1,Top,Signal*
%FSLAX46Y46*%
G04 Gerber Fmt 4.6, Leading zero omitted, Abs format (unit mm)*
G04 Created by KiCad (PCBNEW 4.0.6-e0-6349~53~ubuntu16.04.1) date Wed Mar  1 16:08:09 2017*
%MOMM*%
%LPD*%
G01*
G04 APERTURE LIST*
%ADD10C,0.100000*%
%ADD11C,1.524000*%
%ADD12C,3.000000*%
%ADD13R,1.700000X1.700000*%
%ADD14O,1.700000X1.700000*%
%ADD15C,0.600000*%
%ADD16C,0.250000*%
%ADD17C,0.254000*%
G04 APERTURE END LIST*
D10*
D11*
X202880000Y-117050000D03*
X202880000Y-119050000D03*
X202880000Y-121050000D03*
X202880000Y-123050000D03*
X202880000Y-125050000D03*
X187880000Y-117050000D03*
X187880000Y-119050000D03*
X187880000Y-121050000D03*
X187880000Y-123050000D03*
X187880000Y-125050000D03*
X187880000Y-113050000D03*
D12*
X180340000Y-109220000D03*
X210820000Y-109220000D03*
X180340000Y-140970000D03*
X210820000Y-140970000D03*
D13*
X200660000Y-138430000D03*
D14*
X198120000Y-138430000D03*
X195580000Y-138430000D03*
X193040000Y-138430000D03*
X190500000Y-138430000D03*
D15*
X193040000Y-128270000D03*
D16*
X187880000Y-113050000D02*
X193060000Y-113050000D01*
X199060000Y-119050000D02*
X202880000Y-119050000D01*
X193060000Y-113050000D02*
X199060000Y-119050000D01*
X187880000Y-123050000D02*
X189480000Y-123050000D01*
X202880000Y-117050000D02*
X201300000Y-117050000D01*
X201300000Y-117050000D02*
X201290000Y-117040000D01*
X198120000Y-138430000D02*
X198120000Y-136380000D01*
X198120000Y-136380000D02*
X198090000Y-136350000D01*
X193040000Y-138430000D02*
X193040000Y-128270000D01*
X193130000Y-125050000D02*
X202880000Y-125050000D01*
X190500000Y-127680000D02*
X193130000Y-125050000D01*
X190500000Y-138430000D02*
X190500000Y-127680000D01*
D17*
G36*
X205613000Y-140843000D02*
X184277000Y-140843000D01*
X184277000Y-117326661D01*
X186482758Y-117326661D01*
X186694990Y-117840303D01*
X186904342Y-118050021D01*
X186696371Y-118257630D01*
X186483243Y-118770900D01*
X186482758Y-119326661D01*
X186694990Y-119840303D01*
X186904342Y-120050021D01*
X186696371Y-120257630D01*
X186483243Y-120770900D01*
X186482758Y-121326661D01*
X186694990Y-121840303D01*
X186904342Y-122050021D01*
X186696371Y-122257630D01*
X186483243Y-122770900D01*
X186482758Y-123326661D01*
X186694990Y-123840303D01*
X186904342Y-124050021D01*
X186696371Y-124257630D01*
X186483243Y-124770900D01*
X186482758Y-125326661D01*
X186694990Y-125840303D01*
X187087630Y-126233629D01*
X187600900Y-126446757D01*
X188156661Y-126447242D01*
X188670303Y-126235010D01*
X189063629Y-125842370D01*
X189276757Y-125329100D01*
X189277242Y-124773339D01*
X189065010Y-124259697D01*
X188855658Y-124049979D01*
X189063629Y-123842370D01*
X189276757Y-123329100D01*
X189277242Y-122773339D01*
X189065010Y-122259697D01*
X188855658Y-122049979D01*
X189063629Y-121842370D01*
X189276757Y-121329100D01*
X189277242Y-120773339D01*
X189065010Y-120259697D01*
X188855658Y-120049979D01*
X189063629Y-119842370D01*
X189276757Y-119329100D01*
X189277242Y-118773339D01*
X189065010Y-118259697D01*
X188855658Y-118049979D01*
X189063629Y-117842370D01*
X189276757Y-117329100D01*
X189277242Y-116773339D01*
X189065010Y-116259697D01*
X188672370Y-115866371D01*
X188159100Y-115653243D01*
X187603339Y-115652758D01*
X187089697Y-115864990D01*
X186696371Y-116257630D01*
X186483243Y-116770900D01*
X186482758Y-117326661D01*
X184277000Y-117326661D01*
X184277000Y-113326661D01*
X186482758Y-113326661D01*
X186694990Y-113840303D01*
X187087630Y-114233629D01*
X187600900Y-114446757D01*
X188156661Y-114447242D01*
X188670303Y-114235010D01*
X189063629Y-113842370D01*
X189077070Y-113810000D01*
X192745198Y-113810000D01*
X198522599Y-119587401D01*
X198769160Y-119752148D01*
X199060000Y-119810000D01*
X201682469Y-119810000D01*
X201694990Y-119840303D01*
X201904342Y-120050021D01*
X201696371Y-120257630D01*
X201483243Y-120770900D01*
X201482758Y-121326661D01*
X201694990Y-121840303D01*
X201904342Y-122050021D01*
X201696371Y-122257630D01*
X201483243Y-122770900D01*
X201482758Y-123326661D01*
X201694990Y-123840303D01*
X201904342Y-124050021D01*
X201696371Y-124257630D01*
X201682930Y-124290000D01*
X193130000Y-124290000D01*
X192839161Y-124347852D01*
X192592599Y-124512599D01*
X189962599Y-127142599D01*
X189797852Y-127389161D01*
X189740000Y-127680000D01*
X189740000Y-137157046D01*
X189449946Y-137350853D01*
X189128039Y-137832622D01*
X189015000Y-138400907D01*
X189015000Y-138459093D01*
X189128039Y-139027378D01*
X189449946Y-139509147D01*
X189931715Y-139831054D01*
X190500000Y-139944093D01*
X191068285Y-139831054D01*
X191550054Y-139509147D01*
X191770000Y-139179974D01*
X191989946Y-139509147D01*
X192471715Y-139831054D01*
X193040000Y-139944093D01*
X193608285Y-139831054D01*
X194090054Y-139509147D01*
X194310000Y-139179974D01*
X194529946Y-139509147D01*
X195011715Y-139831054D01*
X195580000Y-139944093D01*
X196148285Y-139831054D01*
X196630054Y-139509147D01*
X196850000Y-139179974D01*
X197069946Y-139509147D01*
X197551715Y-139831054D01*
X198120000Y-139944093D01*
X198688285Y-139831054D01*
X199170054Y-139509147D01*
X199197850Y-139467548D01*
X199206838Y-139515317D01*
X199345910Y-139731441D01*
X199558110Y-139876431D01*
X199810000Y-139927440D01*
X201510000Y-139927440D01*
X201745317Y-139883162D01*
X201961441Y-139744090D01*
X202106431Y-139531890D01*
X202157440Y-139280000D01*
X202157440Y-137580000D01*
X202113162Y-137344683D01*
X201974090Y-137128559D01*
X201761890Y-136983569D01*
X201510000Y-136932560D01*
X199810000Y-136932560D01*
X199574683Y-136976838D01*
X199358559Y-137115910D01*
X199213569Y-137328110D01*
X199199914Y-137395541D01*
X199170054Y-137350853D01*
X198688285Y-137028946D01*
X198120000Y-136915907D01*
X197551715Y-137028946D01*
X197069946Y-137350853D01*
X196850000Y-137680026D01*
X196630054Y-137350853D01*
X196148285Y-137028946D01*
X195580000Y-136915907D01*
X195011715Y-137028946D01*
X194529946Y-137350853D01*
X194310000Y-137680026D01*
X194090054Y-137350853D01*
X193800000Y-137157046D01*
X193800000Y-128832463D01*
X193832192Y-128800327D01*
X193974838Y-128456799D01*
X193975162Y-128084833D01*
X193833117Y-127741057D01*
X193570327Y-127477808D01*
X193226799Y-127335162D01*
X192854833Y-127334838D01*
X192511057Y-127476883D01*
X192247808Y-127739673D01*
X192105162Y-128083201D01*
X192104838Y-128455167D01*
X192246883Y-128798943D01*
X192280000Y-128832118D01*
X192280000Y-137157046D01*
X191989946Y-137350853D01*
X191770000Y-137680026D01*
X191550054Y-137350853D01*
X191260000Y-137157046D01*
X191260000Y-127994802D01*
X193444802Y-125810000D01*
X201682469Y-125810000D01*
X201694990Y-125840303D01*
X202087630Y-126233629D01*
X202600900Y-126446757D01*
X203156661Y-126447242D01*
X203670303Y-126235010D01*
X204063629Y-125842370D01*
X204276757Y-125329100D01*
X204277242Y-124773339D01*
X204065010Y-124259697D01*
X203855658Y-124049979D01*
X204063629Y-123842370D01*
X204276757Y-123329100D01*
X204277242Y-122773339D01*
X204065010Y-122259697D01*
X203855658Y-122049979D01*
X204063629Y-121842370D01*
X204276757Y-121329100D01*
X204277242Y-120773339D01*
X204065010Y-120259697D01*
X203855658Y-120049979D01*
X204063629Y-119842370D01*
X204276757Y-119329100D01*
X204277242Y-118773339D01*
X204065010Y-118259697D01*
X203855658Y-118049979D01*
X204063629Y-117842370D01*
X204276757Y-117329100D01*
X204277242Y-116773339D01*
X204065010Y-116259697D01*
X203672370Y-115866371D01*
X203159100Y-115653243D01*
X202603339Y-115652758D01*
X202089697Y-115864990D01*
X201696371Y-116257630D01*
X201483243Y-116770900D01*
X201482758Y-117326661D01*
X201694990Y-117840303D01*
X201904342Y-118050021D01*
X201696371Y-118257630D01*
X201682930Y-118290000D01*
X199374802Y-118290000D01*
X193597401Y-112512599D01*
X193350839Y-112347852D01*
X193060000Y-112290000D01*
X189077531Y-112290000D01*
X189065010Y-112259697D01*
X188672370Y-111866371D01*
X188159100Y-111653243D01*
X187603339Y-111652758D01*
X187089697Y-111864990D01*
X186696371Y-112257630D01*
X186483243Y-112770900D01*
X186482758Y-113326661D01*
X184277000Y-113326661D01*
X184277000Y-110617000D01*
X205613000Y-110617000D01*
X205613000Y-140843000D01*
X205613000Y-140843000D01*
G37*
X205613000Y-140843000D02*
X184277000Y-140843000D01*
X184277000Y-117326661D01*
X186482758Y-117326661D01*
X186694990Y-117840303D01*
X186904342Y-118050021D01*
X186696371Y-118257630D01*
X186483243Y-118770900D01*
X186482758Y-119326661D01*
X186694990Y-119840303D01*
X186904342Y-120050021D01*
X186696371Y-120257630D01*
X186483243Y-120770900D01*
X186482758Y-121326661D01*
X186694990Y-121840303D01*
X186904342Y-122050021D01*
X186696371Y-122257630D01*
X186483243Y-122770900D01*
X186482758Y-123326661D01*
X186694990Y-123840303D01*
X186904342Y-124050021D01*
X186696371Y-124257630D01*
X186483243Y-124770900D01*
X186482758Y-125326661D01*
X186694990Y-125840303D01*
X187087630Y-126233629D01*
X187600900Y-126446757D01*
X188156661Y-126447242D01*
X188670303Y-126235010D01*
X189063629Y-125842370D01*
X189276757Y-125329100D01*
X189277242Y-124773339D01*
X189065010Y-124259697D01*
X188855658Y-124049979D01*
X189063629Y-123842370D01*
X189276757Y-123329100D01*
X189277242Y-122773339D01*
X189065010Y-122259697D01*
X188855658Y-122049979D01*
X189063629Y-121842370D01*
X189276757Y-121329100D01*
X189277242Y-120773339D01*
X189065010Y-120259697D01*
X188855658Y-120049979D01*
X189063629Y-119842370D01*
X189276757Y-119329100D01*
X189277242Y-118773339D01*
X189065010Y-118259697D01*
X188855658Y-118049979D01*
X189063629Y-117842370D01*
X189276757Y-117329100D01*
X189277242Y-116773339D01*
X189065010Y-116259697D01*
X188672370Y-115866371D01*
X188159100Y-115653243D01*
X187603339Y-115652758D01*
X187089697Y-115864990D01*
X186696371Y-116257630D01*
X186483243Y-116770900D01*
X186482758Y-117326661D01*
X184277000Y-117326661D01*
X184277000Y-113326661D01*
X186482758Y-113326661D01*
X186694990Y-113840303D01*
X187087630Y-114233629D01*
X187600900Y-114446757D01*
X188156661Y-114447242D01*
X188670303Y-114235010D01*
X189063629Y-113842370D01*
X189077070Y-113810000D01*
X192745198Y-113810000D01*
X198522599Y-119587401D01*
X198769160Y-119752148D01*
X199060000Y-119810000D01*
X201682469Y-119810000D01*
X201694990Y-119840303D01*
X201904342Y-120050021D01*
X201696371Y-120257630D01*
X201483243Y-120770900D01*
X201482758Y-121326661D01*
X201694990Y-121840303D01*
X201904342Y-122050021D01*
X201696371Y-122257630D01*
X201483243Y-122770900D01*
X201482758Y-123326661D01*
X201694990Y-123840303D01*
X201904342Y-124050021D01*
X201696371Y-124257630D01*
X201682930Y-124290000D01*
X193130000Y-124290000D01*
X192839161Y-124347852D01*
X192592599Y-124512599D01*
X189962599Y-127142599D01*
X189797852Y-127389161D01*
X189740000Y-127680000D01*
X189740000Y-137157046D01*
X189449946Y-137350853D01*
X189128039Y-137832622D01*
X189015000Y-138400907D01*
X189015000Y-138459093D01*
X189128039Y-139027378D01*
X189449946Y-139509147D01*
X189931715Y-139831054D01*
X190500000Y-139944093D01*
X191068285Y-139831054D01*
X191550054Y-139509147D01*
X191770000Y-139179974D01*
X191989946Y-139509147D01*
X192471715Y-139831054D01*
X193040000Y-139944093D01*
X193608285Y-139831054D01*
X194090054Y-139509147D01*
X194310000Y-139179974D01*
X194529946Y-139509147D01*
X195011715Y-139831054D01*
X195580000Y-139944093D01*
X196148285Y-139831054D01*
X196630054Y-139509147D01*
X196850000Y-139179974D01*
X197069946Y-139509147D01*
X197551715Y-139831054D01*
X198120000Y-139944093D01*
X198688285Y-139831054D01*
X199170054Y-139509147D01*
X199197850Y-139467548D01*
X199206838Y-139515317D01*
X199345910Y-139731441D01*
X199558110Y-139876431D01*
X199810000Y-139927440D01*
X201510000Y-139927440D01*
X201745317Y-139883162D01*
X201961441Y-139744090D01*
X202106431Y-139531890D01*
X202157440Y-139280000D01*
X202157440Y-137580000D01*
X202113162Y-137344683D01*
X201974090Y-137128559D01*
X201761890Y-136983569D01*
X201510000Y-136932560D01*
X199810000Y-136932560D01*
X199574683Y-136976838D01*
X199358559Y-137115910D01*
X199213569Y-137328110D01*
X199199914Y-137395541D01*
X199170054Y-137350853D01*
X198688285Y-137028946D01*
X198120000Y-136915907D01*
X197551715Y-137028946D01*
X197069946Y-137350853D01*
X196850000Y-137680026D01*
X196630054Y-137350853D01*
X196148285Y-137028946D01*
X195580000Y-136915907D01*
X195011715Y-137028946D01*
X194529946Y-137350853D01*
X194310000Y-137680026D01*
X194090054Y-137350853D01*
X193800000Y-137157046D01*
X193800000Y-128832463D01*
X193832192Y-128800327D01*
X193974838Y-128456799D01*
X193975162Y-128084833D01*
X193833117Y-127741057D01*
X193570327Y-127477808D01*
X193226799Y-127335162D01*
X192854833Y-127334838D01*
X192511057Y-127476883D01*
X192247808Y-127739673D01*
X192105162Y-128083201D01*
X192104838Y-128455167D01*
X192246883Y-128798943D01*
X192280000Y-128832118D01*
X192280000Y-137157046D01*
X191989946Y-137350853D01*
X191770000Y-137680026D01*
X191550054Y-137350853D01*
X191260000Y-137157046D01*
X191260000Y-127994802D01*
X193444802Y-125810000D01*
X201682469Y-125810000D01*
X201694990Y-125840303D01*
X202087630Y-126233629D01*
X202600900Y-126446757D01*
X203156661Y-126447242D01*
X203670303Y-126235010D01*
X204063629Y-125842370D01*
X204276757Y-125329100D01*
X204277242Y-124773339D01*
X204065010Y-124259697D01*
X203855658Y-124049979D01*
X204063629Y-123842370D01*
X204276757Y-123329100D01*
X204277242Y-122773339D01*
X204065010Y-122259697D01*
X203855658Y-122049979D01*
X204063629Y-121842370D01*
X204276757Y-121329100D01*
X204277242Y-120773339D01*
X204065010Y-120259697D01*
X203855658Y-120049979D01*
X204063629Y-119842370D01*
X204276757Y-119329100D01*
X204277242Y-118773339D01*
X204065010Y-118259697D01*
X203855658Y-118049979D01*
X204063629Y-117842370D01*
X204276757Y-117329100D01*
X204277242Y-116773339D01*
X204065010Y-116259697D01*
X203672370Y-115866371D01*
X203159100Y-115653243D01*
X202603339Y-115652758D01*
X202089697Y-115864990D01*
X201696371Y-116257630D01*
X201483243Y-116770900D01*
X201482758Y-117326661D01*
X201694990Y-117840303D01*
X201904342Y-118050021D01*
X201696371Y-118257630D01*
X201682930Y-118290000D01*
X199374802Y-118290000D01*
X193597401Y-112512599D01*
X193350839Y-112347852D01*
X193060000Y-112290000D01*
X189077531Y-112290000D01*
X189065010Y-112259697D01*
X188672370Y-111866371D01*
X188159100Y-111653243D01*
X187603339Y-111652758D01*
X187089697Y-111864990D01*
X186696371Y-112257630D01*
X186483243Y-112770900D01*
X186482758Y-113326661D01*
X184277000Y-113326661D01*
X184277000Y-110617000D01*
X205613000Y-110617000D01*
X205613000Y-140843000D01*
M02*
