G04 #@! TF.FileFunction,Copper,L2,Bot,Signal*
%FSLAX46Y46*%
G04 Gerber Fmt 4.6, Leading zero omitted, Abs format (unit mm)*
G04 Created by KiCad (PCBNEW 4.0.6-e0-6349~53~ubuntu16.04.1) date Wed Mar  1 16:08:09 2017*
%MOMM*%
%LPD*%
G01*
G04 APERTURE LIST*
%ADD10C,0.100000*%
%ADD11C,1.524000*%
%ADD12C,3.000000*%
%ADD13R,1.700000X1.700000*%
%ADD14O,1.700000X1.700000*%
%ADD15C,0.600000*%
%ADD16C,0.250000*%
G04 APERTURE END LIST*
D10*
D11*
X202880000Y-117050000D03*
X202880000Y-119050000D03*
X202880000Y-121050000D03*
X202880000Y-123050000D03*
X202880000Y-125050000D03*
X187880000Y-117050000D03*
X187880000Y-119050000D03*
X187880000Y-121050000D03*
X187880000Y-123050000D03*
X187880000Y-125050000D03*
X187880000Y-113050000D03*
D12*
X180340000Y-109220000D03*
X210820000Y-109220000D03*
X180340000Y-140970000D03*
X210820000Y-140970000D03*
D13*
X200660000Y-138430000D03*
D14*
X198120000Y-138430000D03*
X195580000Y-138430000D03*
X193040000Y-138430000D03*
X190500000Y-138430000D03*
D15*
X193040000Y-128270000D03*
D16*
X202880000Y-119050000D02*
X204140000Y-119050000D01*
X204470000Y-134620000D02*
X200660000Y-138430000D01*
X204470000Y-119380000D02*
X204470000Y-134620000D01*
X204140000Y-119050000D02*
X204470000Y-119380000D01*
X187880000Y-117050000D02*
X186480000Y-117050000D01*
X195580000Y-135890000D02*
X195580000Y-138430000D01*
X193040000Y-133350000D02*
X195580000Y-135890000D01*
X187960000Y-133350000D02*
X193040000Y-133350000D01*
X185420000Y-130810000D02*
X187960000Y-133350000D01*
X185420000Y-118110000D02*
X185420000Y-130810000D01*
X186480000Y-117050000D02*
X185420000Y-118110000D01*
X190170000Y-119050000D02*
X187880000Y-119050000D01*
X191770000Y-120650000D02*
X190170000Y-119050000D01*
X191770000Y-127000000D02*
X191770000Y-120650000D01*
X193040000Y-128270000D02*
X191770000Y-127000000D01*
M02*
