M48
INCH,TZ
T1C0.016
T2C0.030
T3C0.039
T4C0.098
%
G90
G05
T1
X7.6Y-5.05
T2
X7.3969Y-4.4508
X7.3969Y-4.6083
X7.3969Y-4.687
X7.3969Y-4.7657
X7.3969Y-4.8445
X7.3969Y-4.9232
X7.9874Y-4.6083
X7.9874Y-4.687
X7.9874Y-4.7657
X7.9874Y-4.8445
X7.9874Y-4.9232
T3
X7.5Y-5.45
X7.6Y-5.45
X7.7Y-5.45
X7.8Y-5.45
X7.9Y-5.45
T4
X7.1Y-4.3
X7.1Y-5.55
X8.3Y-4.3
X8.3Y-5.55
T0
M30
